<?xml version="1.0" encoding="utf-8"?>
<!-- Generator: Adobe Illustrator 24.1.1, SVG Export Plug-In . SVG Version: 6.00 Build 0)  -->
<svg version="1.1" xmlns="http://www.w3.org/2000/svg" xmlns:xlink="http://www.w3.org/1999/xlink" x="0px" y="0px" viewBox="0 0 2000 2000" style="enable-background:new 0 0 2000 2000;" xml:space="preserve">
	<style type="text/css">
	.st1{fill:#1B1464;}
	.st2{fill:#FFFFFF;}
	.st3{display:inline;fill:#FCEE21;}
	.st4{fill:#FFFF00;}
	.st5{fill:#F15A24;}
</style>
	<g id="bg_1_">
		<path class="st1" d="M1001.58,1802.94l-720.65-720.65c-75.25-75.25-75.25-197.26,0-272.52L1001.71,89l720.65,720.65
		c75.25,75.25,75.25,197.26,0,272.51L1001.58,1802.94z" />
	</g>
	<g id="fork">
		<path class="st1" d="M742.92,1183.85l220.81,212.58l145.38,176.92c0,0,266.07,285.27,311.32,322.3
		c45.26,37.03,86.4-32.92,64.46-67.2c-21.94-34.29-308.58-322.3-308.58-322.3l-181.03-179.66l-196.12-196.12
		c0,0,49.37-38.4,32.92-94.63c-16.46-56.23-277.04-293.5-279.78-268.81c-2.74,24.69,163.21,207.09,175.55,252.35
		c-46.63-19.2-237.27-201.61-248.24-187.89s163.21,218.06,176.92,257.84c-76.8-26.06-237.27-218.06-255.09-198.86
		c-17.83,19.2,142.63,229.04,212.58,298.98S742.92,1183.85,742.92,1183.85z" />
		<path class="st2" d="M741.55,1152.31l220.81,212.58l145.38,176.92c0,0,266.07,285.27,311.33,322.3
		c45.26,37.03,86.4-32.92,64.46-67.2c-21.94-34.29-308.58-322.3-308.58-322.3L993.9,1294.94l-196.12-196.12
		c0,0,49.37-38.4,32.92-94.63s-277.04-293.5-279.78-268.81c-2.74,24.69,163.21,207.09,175.55,252.35
		c-46.63-19.2-237.27-201.61-248.24-187.89s163.21,218.06,176.92,257.84c-76.8-26.06-237.27-218.06-255.09-198.86
		c-17.83,19.2,142.63,229.04,212.58,298.98S741.55,1152.31,741.55,1152.31z" />
	</g>
	<g id="knife">
		<path class="st1" d="M1534.95,811.5c-109.72,48-342.87,283.9-569.16,515.67c-113.16,115.9-403.21,449.84-421.04,500.59
		c-12.34,76.8,37.03,82.29,78.17,52.12c43.89-24.69,220.81-283.9,279.78-311.33c57.6,12.34,24.69,6.86,69.95,28.8
		c27.43,6.86,342.87-357.96,425.16-469.04C1480.09,1017.22,1550.03,880.07,1534.95,811.5z" />
		<path class="st2" d="M1534.95,785.44c-109.72,48-342.87,283.9-569.16,515.67c-113.16,115.9-403.21,449.84-421.04,500.59
		c-12.34,76.8,37.03,82.29,78.17,52.12c43.89-24.69,220.81-283.9,279.78-311.33c57.6,12.34,24.69,6.86,69.95,28.8
		c27.43,6.86,342.87-357.96,425.16-469.04C1480.09,991.16,1550.03,854.01,1534.95,785.44z" />
	</g>
	<g id="fire">
		<path class="st4" d="M1097.42,284.06c-1.11-12.27-16.78-16.86-24.21-7.03c-40.71,53.82-55.19,138.12-44.25,202.64
		c12.71,74.96,110.54,236.32,116.89,276.98c5.79,37.08,22.16,102.7-1.03,142.87c-2.42,4.2-8.8,2.98-9.54-1.81
		c-8.51-55.18-26.79-61.68-52.79-124.16c-0.1-0.25-0.23-0.5-0.37-0.73c-28.31-46.35-118.03-110.37-98.1-260.26
		c0.69-5.19-5.93-7.98-9.16-3.85c-41.09,52.6-53.57,89.65-50.08,150.11c3.81,66.07,75.74,160.34,88.94,214.72
		c14.11,58.14,32.38,150.02-8.4,194.45c-2.91,3.17-0.91,8.28,3.38,8.62c64.1,5.09,81.68-8.62,133.35-51.88
		c54.63-45.74,130.87-144.84,101.64-284.6c-29.22-139.76-43.2-106.73-91.48-209.64C1110.27,458.07,1101.9,333.68,1097.42,284.06z" />
		<path class="st4" d="M890.47,409.79c-57.17,41.93-130.87,168.98-118.16,276.98c12.71,108,108,176.61,118.16,219.81
		s22.87,97.83,13.98,121.97c-8.89,24.14,44.47-3.81,71.15-106.73c16.52-77.5-68.61-182.96-106.73-285.87
		C848.54,554.63,890.47,409.79,890.47,409.79z" />
		<path class="st5" d="M1105.04,271.36c-1.11-12.27-16.78-16.86-24.21-7.03c-40.71,53.82-55.19,138.12-44.25,202.64
		c12.71,74.96,110.54,236.32,116.89,276.98c5.79,37.08,22.16,102.7-1.03,142.87c-2.42,4.2-8.8,2.98-9.54-1.81
		c-8.51-55.18-26.79-61.68-52.79-124.16c-0.1-0.25-0.23-0.5-0.37-0.73c-28.31-46.35-118.03-110.38-98.1-260.26
		c0.69-5.19-5.93-7.98-9.16-3.85c-41.09,52.6-53.57,89.65-50.08,150.11c3.81,66.07,75.74,160.34,88.94,214.72
		c14.11,58.14,32.38,150.02-8.4,194.45c-2.91,3.17-0.91,8.28,3.38,8.62c64.1,5.09,81.68-8.62,133.35-51.88
		c54.63-45.74,130.87-144.84,101.64-284.6c-29.22-139.76-43.2-106.73-91.48-209.64C1117.9,445.37,1109.52,320.97,1105.04,271.36z" />
		<path class="st5" d="M898.09,397.08c-57.17,41.93-130.87,168.98-118.16,276.98c12.71,108,108,176.61,118.16,219.81
		c10.16,43.2,22.87,97.83,13.98,121.97s44.47-3.81,71.15-106.73c16.52-77.5-68.61-182.96-106.73-285.87
		C856.16,541.93,898.09,397.08,898.09,397.08z" />
	</g>
</svg>